<svg fill="#000000" xmlns="http://www.w3.org/2000/svg" xmlns:xlink="http://www.w3.org/1999/xlink" version="1.1" x="0px" y="0px" viewBox="0 0 100 100" enable-background="new 0 0 100 100" xml:space="preserve"><path d="M65.119,62.979c-1.54,0-2.968,0.484-4.145,1.305L42.113,50.564c0.028-0.26,0.045-0.524,0.045-0.792  c0-0.27-0.018-0.535-0.046-0.797l18.533-13.506c1.235,0.967,2.786,1.549,4.474,1.549c4.011,0,7.273-3.265,7.273-7.277  c0-4.011-3.263-7.275-7.273-7.275c-4.013,0-7.277,3.264-7.277,7.275c0,0.113,0.012,0.223,0.017,0.335L39.027,43.8  c-1.178-0.82-2.605-1.305-4.146-1.305c-4.011,0-7.273,3.265-7.273,7.277c0,4.011,3.263,7.272,7.273,7.272  c1.541,0,2.97-0.484,4.147-1.305l18.86,13.717c-0.029,0.264-0.047,0.531-0.047,0.801c0,4.012,3.265,7.275,7.277,7.275  c4.011,0,7.273-3.264,7.273-7.275C72.393,66.244,69.13,62.979,65.119,62.979z"/></svg>